<?xml version="1.0" standalone="no"?>
<!DOCTYPE svg PUBLIC "-//W3C//DTD SVG 1.1//EN" "http://www.w3.org/Graphics/SVG/1.1/DTD/svg11.dtd" >
<svg xmlns="http://www.w3.org/2000/svg" xmlns:xlink="http://www.w3.org/1999/xlink" version="1.1">
<metadata></metadata>
<defs>
<font id="office_code_probold" horiz-adv-x="1228" >
<font-face units-per-em="2048" ascent="1536" descent="-512" />
<missing-glyph horiz-adv-x="500" />
<glyph horiz-adv-x="0" />
<glyph horiz-adv-x="682" />
<glyph unicode=" " />
<glyph unicode="!" d="M516 522l-51 850h299l-51 -850h-197zM614 -25q-88 0 -146 58.5t-58 150.5q0 90 58 147.5t146 57.5t146.5 -57.5t58.5 -147.5q0 -92 -58.5 -150.5t-146.5 -58.5z" />
<glyph unicode="&#x22;" d="M250 692l-72 441l-10 270h348l-10 -270l-72 -441h-184zM795 692l-72 441l-10 270h348l-10 -270l-72 -441h-184z" />
<glyph unicode="#" d="M250 0l45 383h-152v192h174l29 226h-162v192h187l43 338h172l-41 -338h213l43 338h172l-41 -338h162v-192h-187l-26 -226h172v-192h-195l-47 -383h-174l45 383h-211l-47 -383h-174zM494 575h211l28 226h-213z" />
<glyph unicode="$" d="M547 -236l-178 21l57 309q-178 45 -295 142l131 204q114 -66 211 -98l43 233q-59 22 -101.5 41.5t-92 50.5t-80 65.5t-51.5 84t-21 107.5q0 169 131 255.5t342 86.5l51 270l180 -20l-53 -281q126 -43 230 -143l-150 -172q-80 51 -125 69l-41 -213q58 -20 103 -39.5 t94.5 -50.5t82 -65.5t54 -84.5t21.5 -108q0 -157 -129 -257.5t-357 -100.5zM565 838l33 184q-68 0 -104.5 -24t-36.5 -70q0 -28 27 -49t81 -41zM649 313q73 0 112.5 25t39.5 68q0 33 -29 57.5t-86 48.5z" />
<glyph unicode="%" d="M352 639q-131 0 -217 95t-86 251q0 155 85.5 247.5t217.5 92.5q133 0 219 -92.5t86 -247.5q0 -156 -86 -251t-219 -95zM815 772l-104 98l331 408l154 -150zM352 799q43 0 71 44.5t28 141.5q0 178 -99 178q-96 0 -96 -178q0 -97 27 -141.5t69 -44.5zM877 -25 q-133 0 -219.5 96t-86.5 253q0 155 86.5 247.5t219.5 92.5q132 0 217.5 -92.5t85.5 -247.5q0 -157 -86 -253t-217 -96zM190 57l-155 150l383 354l104 -96zM877 137q42 0 69 44.5t27 142.5q0 178 -96 178q-99 0 -99 -178q0 -97 28 -142t71 -45z" />
<glyph unicode="&#x26;" d="M475 -25q-201 0 -314.5 111t-113.5 274q0 123 57.5 210.5t157.5 160.5q-86 166 -86 293q0 149 91 250.5t239 101.5q150 0 235.5 -82.5t85.5 -222.5q0 -50 -15.5 -97t-36.5 -81t-60 -74.5t-66.5 -64.5t-75.5 -62q89 -116 240 -243q77 138 113 313h274q-64 -258 -186 -457 q104 -69 186 -86l-72 -244q-144 36 -282 131q-160 -131 -371 -131zM463 868q133 96 133 203t-84 107q-39 0 -63.5 -42t-24.5 -110q0 -75 39 -158zM514 205q67 0 131 49q-151 135 -254 278q-59 -72 -59 -153q0 -77 50.5 -125.5t131.5 -48.5z" />
<glyph unicode="'" d="M522 692l-71 441l-11 270h348l-10 -270l-71 -441h-185z" />
<glyph unicode="(" d="M803 -367q-206 183 -319 419t-113 517t113 517t319 419l168 -133q-183 -178 -265.5 -369t-82.5 -434t82.5 -433.5t265.5 -368.5z" />
<glyph unicode=")" d="M426 -367l-168 134q183 178 265.5 368.5t82.5 433.5t-82.5 434t-265.5 369l168 133q206 -183 319 -419t113 -517t-113 -517t-319 -419z" />
<glyph unicode="*" d="M377 186l-131 90l198 322l-313 139l47 146l332 -88l25 364h159l25 -364l332 88l47 -146l-314 -139l199 -322l-131 -90l-238 291z" />
<glyph unicode="+" d="M504 193v376h-361v213h361v377h221v-377h360v-213h-360v-376h-221z" />
<glyph unicode="," d="M449 -444l-76 176q266 91 266 291q-12 -3 -23 -3q-91 0 -156 56t-65 153q0 93 66.5 152t163.5 59q124 0 189 -92t65 -260q0 -196 -109.5 -332t-320.5 -200z" />
<glyph unicode="-" d="M143 569v213h942v-213h-942z" />
<glyph unicode="." d="M614 -25q-104 0 -170.5 68.5t-66.5 171.5t66.5 172.5t170.5 69.5t171 -69.5t67 -172.5t-66.5 -171.5t-171.5 -68.5z" />
<glyph unicode="/" d="M49 -66l879 1520h252l-879 -1520h-252z" />
<glyph unicode="0" d="M614 -25q-230 0 -364.5 184t-134.5 521t134 516.5t365 179.5t365.5 -179.5t134.5 -516.5t-135 -521t-365 -184zM391 504l367 569q-56 70 -144 70q-231 0 -231 -463q0 -70 8 -176zM614 209q106 0 169 110.5t63 360.5q0 111 -8 174l-367 -571q57 -74 143 -74z" />
<glyph unicode="1" d="M168 0v244h336v800h-268v187q198 35 348 121h221v-1108h295v-244h-932z" />
<glyph unicode="2" d="M119 0v172q110 98 177 159.5t148 140t127.5 133t89.5 115t61.5 112.5t18.5 100q0 100 -56 154.5t-157 54.5q-124 0 -262 -142l-162 164q107 110 213.5 161.5t251.5 51.5q205 0 332 -116.5t127 -309.5q0 -67 -26.5 -140.5t-67.5 -140t-107.5 -145t-128 -141.5t-147.5 -145 q148 16 235 16h310v-254h-977z" />
<glyph unicode="3" d="M571 -25q-161 0 -283.5 51t-201.5 140l139 190q147 -137 318 -137q108 0 175.5 44t67.5 122q0 48 -19 83.5t-63 63t-121.5 41t-189.5 13.5v213q350 0 350 188q0 72 -51.5 113t-140.5 41q-134 0 -277 -121l-151 184q206 172 442 172q217 0 348 -97t131 -271 q0 -204 -247 -301v-9q131 -36 210.5 -120.5t79.5 -210.5q0 -121 -72.5 -211.5t-188.5 -135.5t-255 -45z" />
<glyph unicode="4" d="M698 0v328h-626v207l366 817h301l-377 -795h336v330h281v-330h164v-229h-164v-328h-281z" />
<glyph unicode="5" d="M580 -25q-297 0 -486 189l135 190q153 -135 308 -135q113 0 182 57t69 162q0 102 -65.5 158.5t-171.5 56.5q-63 0 -107 -14t-112 -53l-133 86l34 680h797v-254h-536l-23 -267q83 35 172 35q92 0 171.5 -26t141.5 -76t98 -132t36 -186q0 -110 -42 -200.5t-113 -148.5 t-162.5 -90t-192.5 -32z" />
<glyph unicode="6" d="M649 -25q-82 0 -157 24t-143 76t-117.5 128.5t-79 189.5t-29.5 250q0 184 47 328t126.5 230.5t178 130.5t209.5 44q130 0 236 -44.5t178 -114.5l-158 -181q-45 41 -106.5 69t-122.5 28q-63 0 -115 -23.5t-95 -73t-69.5 -137t-30.5 -205.5q68 69 153.5 109.5t160.5 40.5 q179 0 290 -106.5t111 -311.5q0 -135 -65 -239.5t-170.5 -158t-231.5 -53.5zM643 201q85 0 142 57.5t57 167.5q0 102 -51.5 152.5t-141.5 50.5q-129 0 -239 -135q22 -154 85 -223.5t148 -69.5z" />
<glyph unicode="7" d="M395 0q19 351 102 593t283 505h-653v254h977v-185q-83 -96 -143 -181t-103.5 -174.5t-71 -171.5t-45.5 -188.5t-27 -207t-16 -244.5h-303z" />
<glyph unicode="8" d="M612 -25q-223 0 -355 102t-132 267q0 117 66 197t180 139v8q-191 137 -191 318q0 169 123.5 269.5t319.5 100.5q194 0 310 -101t116 -267q0 -89 -51.5 -165t-135.5 -134v-9q115 -59 179.5 -142t64.5 -210q0 -165 -131 -269t-363 -104zM702 782q99 94 99 205 q0 81 -49 130.5t-136 49.5q-75 0 -123.5 -42t-48.5 -119q0 -42 18 -75.5t55.5 -60t79 -46t105.5 -42.5zM621 184q93 0 148.5 45t55.5 129q0 22 -4 41.5t-17 37t-22.5 30t-35 28t-39 24t-50 24t-52.5 21.5t-62 24q-20 8 -31 12q-127 -94 -127 -221q0 -89 67 -142t169 -53z " />
<glyph unicode="9" d="M543 -25q-129 0 -235.5 44.5t-180.5 115.5l160 180q41 -41 104 -68.5t125 -27.5t113.5 23t95 72.5t70 137t30.5 207.5q-69 -71 -154 -111t-159 -40q-179 0 -291 106.5t-112 311.5q0 135 64.5 239t170 157.5t231.5 53.5q82 0 157.5 -23.5t143.5 -76t118 -129t79 -189 t29 -249.5q0 -148 -30.5 -271t-83.5 -207.5t-124.5 -143t-152 -85.5t-168.5 -27zM578 721q128 0 239 139q-23 152 -86.5 221.5t-148.5 69.5q-83 0 -141 -58t-58 -167q0 -104 52 -154.5t143 -50.5z" />
<glyph unicode=":" d="M614 637q-104 0 -170.5 69.5t-66.5 172.5q0 101 66.5 170t170.5 69t171 -69t67 -170q0 -103 -67 -172.5t-171 -69.5zM614 -25q-104 0 -170.5 68.5t-66.5 171.5t66.5 172.5t170.5 69.5t171 -69.5t67 -172.5t-66.5 -171.5t-171.5 -68.5z" />
<glyph unicode=";" d="M614 637q-104 0 -170.5 69.5t-66.5 172.5q0 101 66.5 170t170.5 69t171 -69t67 -170q0 -103 -67 -172.5t-171 -69.5zM449 -444l-76 176q266 91 266 291q-12 -3 -23 -3q-91 0 -156 56t-65 153q0 93 66.5 152t163.5 59q124 0 189 -92t65 -260q0 -196 -109.5 -332 t-320.5 -200z" />
<glyph unicode="&#x3c;" d="M1028 -25l-790 574v209l790 573v-293l-543 -381v-8l543 -381v-293z" />
<glyph unicode="=" d="M143 809v211h942v-211h-942zM143 332v211h942v-211h-942z" />
<glyph unicode="&#x3e;" d="M201 -25v293l542 381v8l-542 381v293l790 -573v-209z" />
<glyph unicode="?" d="M446 522q-9 56 1.5 106t35 87.5t56 71t65 62.5t61.5 56.5t46 58t18 60.5q0 62 -42 95.5t-109 33.5q-105 0 -209 -94l-168 153q77 86 178.5 135.5t218.5 49.5q186 0 303 -86t117 -248q0 -54 -18.5 -101.5t-47.5 -82t-63.5 -66.5t-68.5 -63t-61 -63t-41 -74.5t-9 -90.5 h-263zM586 -25q-88 0 -146.5 58.5t-58.5 150.5q0 90 58.5 147.5t146.5 57.5t146.5 -57.5t58.5 -147.5q0 -92 -58.5 -150.5t-146.5 -58.5z" />
<glyph unicode="@" d="M694 -51q-100 0 -191.5 26.5t-172 83t-140 138t-93.5 197t-34 253.5q0 182 50.5 322t138.5 223.5t199 125.5t241 42q109 0 193.5 -35t136 -96.5t78 -141.5t26.5 -174v-577h-159l-23 102h-8q-88 -127 -246 -127q-112 0 -186 83t-74 204q0 81 35 142t104.5 102t159 66.5 t211.5 41.5v15q0 90 -67 151.5t-189 61.5q-59 0 -116 -17.5t-111.5 -58.5t-95.5 -101t-66 -153t-25 -207q0 -125 36.5 -225t98 -160.5t138 -92.5t162.5 -32t146 18.5t126 59.5l86 -150q-93 -55 -179.5 -82.5t-189.5 -27.5zM758 506q75 0 151 76v186q-143 -22 -201.5 -58.5 t-58.5 -105.5q0 -45 29 -71.5t80 -26.5z" />
<glyph unicode="A" d="M18 0l416 1352h361l415 -1352h-319l-80 324h-403l-82 -324h-308zM469 559h281l-31 127l-107 436h-8q-44 -189 -104 -436z" />
<glyph unicode="B" d="M172 0v1352h418q86 0 157 -10t134 -34t106 -61.5t67.5 -96t24.5 -134.5q0 -98 -58.5 -180t-170.5 -113v-8q291 -54 291 -318q0 -133 -69 -224t-181.5 -132t-261.5 -41h-457zM473 805h102q107 0 158 44t51 124q0 77 -49.5 111t-156.5 34h-105v-313zM473 233h131 q242 0 242 187q0 90 -58.5 131t-183.5 41h-131v-359z" />
<glyph unicode="C" d="M743 -25q-130 0 -243.5 45.5t-200 130.5t-136.5 218.5t-50 298.5t49.5 299.5t135.5 223.5t202 137t250 48q223 0 395 -172l-166 -186q-105 98 -229 98q-144 0 -236 -118.5t-92 -319.5q0 -206 93.5 -324t246.5 -118q130 0 237 120l166 -182q-169 -199 -422 -199z" />
<glyph unicode="D" d="M133 0v1352h363q147 0 264 -40t202.5 -121t131 -210t45.5 -299t-45.5 -301t-129 -214t-197.5 -125t-255 -42h-379zM436 244h43q350 0 350 438q0 119 -24.5 203t-72.5 132t-109.5 69.5t-143.5 21.5h-43v-864z" />
<glyph unicode="E" d="M193 0v1352h880v-254h-579v-277h491v-252h-491v-315h600v-254h-901z" />
<glyph unicode="F" d="M221 0v1352h881v-254h-580v-318h494v-254h-494v-526h-301z" />
<glyph unicode="G" d="M702 -25q-129 0 -240 45.5t-194 130.5t-130.5 218t-47.5 299t47.5 301t131 223.5t196 136t242.5 47.5q223 0 391 -172l-166 -186q-47 49 -98.5 73.5t-126.5 24.5q-134 0 -220 -118.5t-86 -319.5q0 -212 81 -327t237 -115q88 0 131 43v235h-195v246h465v-621 q-73 -70 -185 -117t-233 -47z" />
<glyph unicode="H" d="M131 0v1352h301v-523h365v523h301v-1352h-301v565h-365v-565h-301z" />
<glyph unicode="I" d="M152 0v254h311v844h-311v254h925v-254h-311v-844h311v-254h-925z" />
<glyph unicode="J" d="M559 -25q-122 0 -239 54t-199 170l174 186q119 -149 254 -149q107 0 157 56t50 191v617h-523v252h824v-893q0 -103 -26.5 -187.5t-83 -152.5t-155.5 -106t-233 -38z" />
<glyph unicode="K" d="M139 0v1352h305v-557h7l395 557h332l-400 -539l439 -813h-334l-283 573l-156 -208v-365h-305z" />
<glyph unicode="L" d="M219 0v1352h301v-1098h594v-254h-895z" />
<glyph unicode="M" horiz-adv-x="1290" d="M133 0v1352h303l156 -482l53 -188h6l51 188l152 482h303v-1352h-244v451q0 208 39 606h-8l-108 -369l-125 -328h-136l-126 328l-107 369h-8q39 -398 39 -606v-451h-240z" />
<glyph unicode="N" d="M135 0v1352h307l283 -678l115 -297h8q-3 36 -16 144t-20 191t-7 154v486h289v-1352h-308l-282 680l-115 293h-8q4 -45 16.5 -148t19.5 -186t7 -154v-485h-289z" />
<glyph unicode="O" d="M614 -25q-241 0 -388.5 190.5t-147.5 516.5t147 510t389 184t389.5 -184.5t147.5 -509.5q0 -326 -148 -516.5t-389 -190.5zM614 236q104 0 166 121t62 325q0 203 -61.5 318.5t-166.5 115.5t-166 -115.5t-61 -318.5q0 -204 61.5 -325t165.5 -121z" />
<glyph unicode="P" d="M152 0v1352h487q90 0 165.5 -13.5t142.5 -45t113.5 -80.5t73.5 -124t27 -171q0 -115 -41.5 -204t-114 -143.5t-165.5 -82t-201 -27.5h-186v-461h-301zM453 700h168q243 0 243 218q0 104 -59.5 149t-183.5 45h-168v-412z" />
<glyph unicode="Q" d="M991 -369q-188 0 -323 99t-201 264q-183 52 -288 232t-105 456q0 327 145.5 510.5t388.5 183.5q242 0 387.5 -184.5t145.5 -509.5q0 -262 -96 -439.5t-263 -238.5q33 -69 98.5 -100t145.5 -31q53 0 109 27l53 -226q-77 -43 -197 -43zM608 236q104 0 165 121t61 325 q0 203 -60.5 318.5t-165.5 115.5q-106 0 -165.5 -115t-59.5 -319q0 -205 60 -325.5t165 -120.5z" />
<glyph unicode="R" d="M143 0v1352h473q89 0 163 -12.5t141 -43t113 -77.5t73 -120t27 -167q0 -144 -63.5 -241.5t-174.5 -147.5l301 -543h-338l-256 489h-158v-489h-301zM444 729h148q120 0 182 51.5t62 151.5q0 98 -59.5 139t-184.5 41h-148v-383z" />
<glyph unicode="S" d="M610 -25q-137 0 -269.5 50t-238.5 145l174 207q77 -65 167 -103t175 -38q201 0 201 133q0 21 -5 38t-21 32t-28 25t-43.5 24t-48.5 20.5t-61 23.5l-172 76q-125 46 -204.5 137.5t-79.5 229.5q0 171 137.5 286t351.5 115q123 0 239 -45.5t206 -132.5l-154 -190 q-73 55 -140.5 81.5t-150.5 26.5q-88 0 -136 -32.5t-48 -92.5q0 -38 30 -67.5t62.5 -44t110.5 -42.5q11 -4 16 -6l162 -71q286 -107 286 -367q0 -84 -35 -159.5t-99 -133t-163.5 -91.5t-220.5 -34z" />
<glyph unicode="T" d="M463 0v1098h-400v254h1102v-254h-399v-1098h-303z" />
<glyph unicode="U" d="M618 -25q-242 0 -364.5 139.5t-122.5 405.5v832h301v-863q0 -253 186 -253q189 0 189 253v863h291v-832q0 -267 -120 -406t-360 -139z" />
<glyph unicode="V" d="M434 0l-403 1352h319l162 -633q20 -76 52.5 -219t51.5 -215h9q24 88 62 244.5t46 189.5l158 633h307l-401 -1352h-363z" />
<glyph unicode="W" d="M186 0l-178 1352h307l43 -723q1 -59 4.5 -173t4.5 -171h6q12 66 38 188t33 156l93 379h182l88 -379q9 -51 34 -166.5t36 -177.5h8q1 37 4 158t6 186l39 723h287l-166 -1352h-316l-84 430q-29 154 -37 258h-6q-13 -131 -37 -258l-79 -430h-310z" />
<glyph unicode="X" d="M37 0l389 694l-367 658h338l129 -258q18 -36 55.5 -115.5t47.5 -101.5h8q55 144 90 217l119 258h323l-366 -672l389 -680h-336l-145 279q-50 94 -107 221h-8q-52 -128 -98 -221l-140 -279h-321z" />
<glyph unicode="Y" d="M463 0v457l-430 895h323l136 -328q59 -146 120 -309h9q91 231 124 309l136 328h315l-430 -895v-457h-303z" />
<glyph unicode="Z" d="M115 0v182l626 918h-567v252h938v-183l-625 -915h633v-254h-1005z" />
<glyph unicode="[" d="M412 -311v1761h604v-160h-375v-1442h375v-159h-604z" />
<glyph unicode="\" d="M928 -66l-879 1520h252l879 -1520h-252z" />
<glyph unicode="]" d="M215 -311v159h373v1442h-373v160h604v-1761h-604z" />
<glyph unicode="^" d="M176 561l318 811h241l318 -811h-248l-94 262l-93 277h-8l-92 -277l-94 -262h-248z" />
<glyph unicode="_" d="M123 -336v225h983v-225h-983z" />
<glyph unicode="`" d="M563 1176l-270 342h307l182 -342h-219z" />
<glyph unicode="a" d="M459 -25q-151 0 -242.5 89.5t-91.5 224.5q0 177 156.5 268.5t513.5 114.5q-8 75 -62 116t-155 41q-146 0 -269 -98l-106 197q76 64 192 103.5t242 39.5q218 0 338.5 -118.5t120.5 -350.5v-602h-246l-23 119h-8q-184 -144 -360 -144zM555 209q116 0 240 102v181 q-144 -9 -231 -35t-118.5 -61t-31.5 -85q0 -51 37 -76.5t104 -25.5z" />
<glyph unicode="b" d="M692 -25q-148 0 -276 140h-8l-25 -115h-236v1481h302v-367l-9 -166q60 57 135 90t148 33q190 0 300 -143.5t110 -386.5q0 -130 -37 -238.5t-98.5 -179t-140.5 -109.5t-165 -39zM625 221q88 0 143 79t55 235q0 290 -186 290q-96 0 -188 -102v-430q77 -72 176 -72z" />
<glyph unicode="c" d="M702 -25q-120 0 -223 37t-179 105.5t-119.5 172.5t-43.5 232q0 168 82.5 295t214.5 190.5t291 63.5q115 0 214 -39t167 -104l-139 -187q-114 86 -226 86q-131 0 -213 -84t-82 -221t79 -220t206 -83q132 0 268 100l123 -190q-89 -76 -200.5 -115t-219.5 -39z" />
<glyph unicode="d" d="M524 -25q-195 0 -311.5 146.5t-116.5 400.5q0 124 36.5 229.5t97.5 174t139 107t161 38.5q82 0 142 -28.5t119 -86.5l-11 164v361h301v-1481h-245l-23 109h-6q-60 -60 -135 -97t-148 -37zM602 221q104 0 178 101v430q-76 73 -170 73q-88 0 -146 -77.5t-58 -221.5 q0 -305 196 -305z" />
<glyph unicode="e" d="M676 -25q-159 0 -285.5 63.5t-202 189.5t-75.5 294q0 124 44.5 229.5t118.5 174t168.5 107t196.5 38.5q227 0 352 -140t125 -362q0 -54 -12 -135h-684q14 -115 95 -172t200 -57q126 0 262 74l98 -183q-87 -56 -194 -88.5t-207 -32.5zM418 635h428q0 96 -49.5 150.5 t-149.5 54.5q-85 0 -147 -52t-82 -153z" />
<glyph unicode="f" d="M436 0v809h-268v223l268 12v33q0 92 27 168.5t81 135t142.5 91.5t204.5 33q149 0 307 -57l-57 -221q-96 41 -213 41q-97 0 -144 -46.5t-47 -142.5v-35h350v-235h-350v-809h-301z" />
<glyph unicode="g" d="M553 -444q-98 0 -204.5 30.5t-188.5 98.5l100 204q124 -98 293 -98q106 0 171 55.5t67 122.5l6 170q-50 -52 -125 -82t-148 -30q-191 0 -309.5 143t-118.5 371q0 117 36 218t97 168.5t141 105.5t167 38q159 0 276 -135h8l25 108h235v-1044q0 -213 -135.5 -328.5 t-392.5 -115.5zM602 268q102 0 178 105v379q-76 73 -174 73q-82 0 -143.5 -76.5t-61.5 -203.5q0 -130 55 -203.5t146 -73.5z" />
<glyph unicode="h" d="M147 0v1481h302v-367l-17 -203q156 160 344 160q166 0 248 -111t82 -315v-645h-301v606q0 110 -34 159.5t-116 49.5q-58 0 -102.5 -27.5t-103.5 -89.5v-698h-302z" />
<glyph unicode="i" d="M610 1167q-90 0 -147 55t-57 146q0 92 57.5 150.5t146.5 58.5q90 0 147.5 -58.5t57.5 -150.5q0 -91 -57.5 -146t-147.5 -55zM125 0v244h348v565h-348v235h649v-800h348v-244h-997z" />
<glyph unicode="j" d="M707 1200q-90 0 -147.5 55t-57.5 146q0 92 57.5 150.5t147.5 58.5q89 0 146.5 -58.5t57.5 -150.5q0 -91 -57 -146t-147 -55zM399 -444q-168 0 -313 71l88 215q107 -51 207 -51q42 0 75 14.5t54 38t34.5 54t19 59.5t5.5 59v793h-407v235h708v-1015q0 -473 -471 -473z" />
<glyph unicode="k" d="M156 0v1481h301v-867h8l373 430h329l-385 -428l416 -616h-326l-266 432l-149 -168v-264h-301z" />
<glyph unicode="l" d="M809 -25q-189 0 -288 114.5t-99 316.5v837h-295v238h596v-1090q0 -90 46.5 -131t117.5 -41q78 0 160 35l67 -221q-65 -22 -100.5 -32t-90 -18t-114.5 -8z" />
<glyph unicode="m" d="M74 0v1044h225l23 -131h8q70 158 217 158q68 0 113.5 -44t64.5 -128q30 78 86 125t137 47q106 0 166 -90.5t60 -247.5v-733h-283v711q0 104 -57 104q-54 0 -95 -106v-709h-231v711q0 104 -59 104q-28 0 -49 -25.5t-44 -80.5v-709h-282z" />
<glyph unicode="n" d="M147 0v1044h246l23 -141h8q164 168 350 168q168 0 250 -111t82 -315v-645h-301v606q0 110 -34 159.5t-116 49.5q-58 0 -102.5 -27.5t-103.5 -89.5v-698h-302z" />
<glyph unicode="o" d="M614 -25q-101 0 -194 37t-165.5 105t-115.5 173.5t-43 231.5t43 231.5t115.5 174t165.5 106t194 37.5t194 -37.5t165.5 -106t116 -174t43.5 -231.5t-43.5 -231.5t-116 -173.5t-165.5 -105t-194 -37zM614 219q102 0 155.5 81t53.5 222q0 142 -53.5 223.5t-155.5 81.5 t-155 -81.5t-53 -223.5q0 -141 53 -222t155 -81z" />
<glyph unicode="p" d="M147 -420v1464h246l23 -106h6q65 60 144.5 96.5t158.5 36.5q190 0 299 -144t109 -388q0 -129 -37 -237.5t-98.5 -178.5t-140.5 -109t-165 -39q-142 0 -254 115l11 -172v-338h-302zM623 221q90 0 145 79t55 235q0 290 -186 290q-96 0 -188 -102v-430q77 -72 174 -72z" />
<glyph unicode="q" d="M780 -422v356l13 164q-56 -56 -127.5 -89.5t-141.5 -33.5q-195 0 -311.5 146.5t-116.5 400.5q0 124 36.5 229.5t97.5 174t139 107t161 38.5q86 0 153 -32t130 -103h8l25 108h235v-1466h-301zM602 221q104 0 178 101v430q-76 73 -170 73q-88 0 -146 -77.5t-58 -221.5 q0 -305 196 -305z" />
<glyph unicode="r" d="M238 0v1044h245l25 -229h6q73 126 180.5 191t231.5 65q63 0 104.5 -10t91.5 -33l-61 -252q-44 13 -60.5 17t-50 9t-69.5 5q-101 0 -191 -62.5t-151 -195.5v-549h-301z" />
<glyph unicode="s" d="M606 -25q-130 0 -262 45t-235 115l135 189q192 -125 368 -125q195 0 195 92q0 45 -64 76.5t-208 72.5q-363 104 -363 305q0 146 126.5 236t342.5 90q221 0 438 -143l-135 -180q-158 98 -297 98q-176 0 -176 -86q0 -12 4.5 -23t16.5 -21t23 -18t33 -17t37.5 -15 t45.5 -14.5t47.5 -13.5l52.5 -15q84 -23 145 -48t116.5 -61.5t84.5 -88t29 -116.5q0 -147 -131.5 -240.5t-368.5 -93.5z" />
<glyph unicode="t" d="M795 -25q-439 0 -439 457v377h-256v235h271v308l286 123v-431h430v-235h-430v-375q0 -119 51 -171t162 -52q103 0 203 39l53 -217q-180 -58 -331 -58z" />
<glyph unicode="u" d="M457 -25q-330 0 -330 424v645h301v-606q0 -111 32 -159t115 -48q58 0 103 27.5t96 97.5v688h301v-1044h-246l-22 152h-8q-150 -177 -342 -177z" />
<glyph unicode="v" d="M446 0l-383 1044h304l159 -499q4 -13 92 -322h9q8 27 39.5 144t50.5 178l160 499h288l-372 -1044h-347z" />
<glyph unicode="w" d="M176 0l-168 1044h295l62 -491q7 -52 17 -155t17 -154h7q16 143 47 309l63 358h211l68 -358q31 -177 49 -309h8q7 51 16.5 154t16.5 155l61 491h275l-158 -1044h-348l-58 360q-23 159 -39 308h-8q-17 -170 -37 -308l-55 -360h-342z" />
<glyph unicode="x" d="M76 0l352 543l-330 501h324l104 -172q14 -26 107 -178h8l84 178l90 172h315l-331 -534l352 -510h-324l-116 178q-2 4 -48.5 74.5t-68.5 105.5h-8q-77 -147 -94 -180l-101 -178h-315z" />
<glyph unicode="y" d="M293 -444q-84 0 -156 20l53 229q41 -12 80 -12q41 0 77 15.5t60.5 40t39.5 47.5t24 45l33 84l-441 1019h299l170 -456q40 -106 103 -314h8q43 163 92 314l150 456h284l-403 -1093q-38 -102 -79 -172.5t-97 -122t-129 -76t-168 -24.5z" />
<glyph unicode="z" d="M143 0v162l533 647h-467v235h883v-159l-533 -649h549v-236h-965z" />
<glyph unicode="{" d="M858 -311q-381 -48 -381 291q0 48 16 94t35.5 76.5t35.5 73t16 85.5q0 59 -103.5 114t-259.5 58v176q156 3 259.5 58t103.5 114q0 42 -16 85t-35.5 74t-35.5 77t-16 94q0 339 381 291l158 -20v-160l-84 20q-117 29 -163 -10t-46 -133q0 -53 46 -152t46 -161 q0 -56 -24 -102.5t-65.5 -77.5t-91 -51t-106.5 -30v-8q57 -10 106.5 -30t91 -50.5t65.5 -77t24 -102.5q0 -64 -46 -161.5t-46 -151.5q0 -95 46 -134t163 -10l84 21v-160z" />
<glyph unicode="|" d="M481 -512v2048h267v-2048h-267z" />
<glyph unicode="}" d="M373 -311l-158 20v160l84 -21q116 -28 161.5 11t45.5 133q0 54 -45 151.5t-45 161.5q0 109 81.5 174t204.5 86v8q-123 21 -204.5 86.5t-81.5 174.5q0 62 45 161t45 152q0 94 -45.5 132.5t-161.5 10.5l-84 -20v160l158 20q381 48 381 -291q0 -48 -16.5 -94t-36 -77 t-36 -74t-16.5 -85q0 -59 104 -114t261 -58v-176q-157 -3 -261 -58t-104 -114q0 -43 16.5 -85.5t36 -73t36 -76t16.5 -94.5q0 -339 -381 -291z" />
<glyph unicode="~" d="M287 479l-181 84q120 297 334 297q47 0 90.5 -16t75.5 -39t62 -45.5t62 -38.5t63 -16q92 0 149 167l180 -84q-120 -296 -334 -296q-47 0 -90 16t-75.5 39t-62 45.5t-61.5 38.5t-63 16q-42 0 -81 -42.5t-68 -125.5z" />
<glyph unicode="&#xa0;" />
<glyph unicode="&#xa1;" d="M614 627q-88 0 -146 57t-58 147q0 92 58 150.5t146 58.5t146.5 -58.5t58.5 -150.5q0 -90 -58 -147t-147 -57zM465 -356l51 850h197l51 -850h-299z" />
<glyph unicode="&#xa2;" d="M637 -84v195q-203 27 -321.5 163t-118.5 355q0 211 121.5 346t318.5 168v198h166v-190q157 -15 254 -115l-137 -184q-61 49 -117 55v-557q74 13 147 72l121 -191q-115 -100 -268 -120v-195h-166zM637 373v512q-148 -65 -148 -256q0 -93 38 -159t110 -97z" />
<glyph unicode="&#xa3;" d="M137 0v186q109 43 175.5 125.5t66.5 188.5q0 28 -6 55h-230v176l172 10q-39 107 -39 164q0 191 130 305.5t337 114.5q231 0 381 -166l-161 -164q-83 86 -191 86q-101 0 -156 -48t-55 -144q0 -53 27 -148h346v-186h-299q4 -36 4 -57q0 -72 -25.5 -126t-85.5 -110v-8h598 v-254h-989z" />
<glyph unicode="&#xa4;" d="M223 129l-149 152l166 168q-70 95 -70 227q0 130 68 223l-164 168l149 152l183 -185q97 51 208 51q107 0 209 -51l183 185l149 -152l-166 -168q70 -92 70 -223q0 -129 -72 -227l168 -168l-149 -152l-185 186q-94 -49 -207 -49q-112 0 -206 49zM614 475q75 0 126 55.5 t51 145.5q0 89 -51 145t-126 56t-125.5 -56t-50.5 -145q0 -90 50.5 -145.5t125.5 -55.5z" />
<glyph unicode="&#xa5;" d="M463 0v301h-346v143h346v113h-346v143h280l-334 600h310l125 -272q13 -31 36 -85.5t42.5 -99t37.5 -83.5h9l116 268l125 272h301l-334 -600h281v-143h-348v-113h348v-143h-348v-301h-301z" />
<glyph unicode="&#xa6;" d="M481 639v897h267v-897h-267zM481 -512v930h267v-930h-267z" />
<glyph unicode="&#xa7;" d="M565 -172q-118 0 -225.5 44t-173.5 128l172 154q105 -105 227 -105q61 0 92 24t31 64q0 32 -30 59t-78 49t-105.5 46t-115.5 57t-106 74t-78 104.5t-30 141.5q0 76 45.5 146t122.5 116q-59 72 -59 170q0 140 97.5 226.5t266.5 86.5q200 0 373 -133l-139 -188 q-112 98 -217 98q-111 0 -111 -80q0 -29 31 -55t80 -48.5t109 -48t119.5 -59.5t108.5 -75t80 -104t31 -138q0 -171 -172 -273q47 -70 47 -157q0 -143 -103.5 -233.5t-289.5 -90.5zM756 434q73 46 73 123q0 31 -15.5 58t-39.5 46.5t-62.5 40t-72 35t-82.5 35.5t-82 37 q-76 -45 -76 -119q0 -37 20.5 -67t60.5 -55t80 -43.5t99 -44.5t97 -46z" />
<glyph unicode="&#xa8;" d="M391 1169q-70 0 -116 46.5t-46 115.5q0 68 46 114t116 46t115 -46t45 -114q0 -70 -45 -116t-115 -46zM838 1169q-70 0 -115 46t-45 116q0 68 45 114t115 46t115.5 -46t45.5 -114q0 -69 -45.5 -115.5t-115.5 -46.5z" />
<glyph unicode="&#xa9;" horiz-adv-x="1349" d="M676 -18q-136 0 -258.5 48t-215.5 134.5t-147.5 216.5t-54.5 285q0 124 35.5 232.5t98.5 188.5t147.5 138t185 87t209.5 29q136 0 258 -47t214.5 -131.5t147 -213.5t54.5 -283q0 -155 -54.5 -285t-147 -216.5t-214.5 -134.5t-258 -48zM676 106q229 0 382.5 156t153.5 404 q0 164 -71.5 291t-193 194.5t-271.5 67.5q-230 0 -383.5 -153t-153.5 -400q0 -123 41.5 -228.5t114 -178t171 -113t210.5 -40.5zM700 260q-174 0 -284.5 110t-110.5 294q0 174 117 283.5t278 109.5q86 0 150 -32t121 -89l-113 -125q-67 70 -139 70q-94 0 -146.5 -61.5 t-52.5 -155.5q0 -104 51.5 -166t137.5 -62q47 0 83 17t80 53l99 -139q-137 -107 -271 -107z" />
<glyph unicode="&#xaa;" d="M530 516q-95 0 -155 59t-60 144q0 108 95.5 168t304.5 80q-3 42 -32.5 65t-82.5 23q-76 0 -186 -60l-76 138q153 90 305 90q135 0 210 -77.5t75 -232.5v-381h-174l-15 68h-4q-101 -84 -205 -84zM598 678q64 0 117 53v109q-195 -24 -195 -103q0 -29 21 -44t57 -15z" />
<glyph unicode="&#xab;" d="M436 51l-350 316v299l350 315l127 -113l-260 -352l260 -352zM981 51l-350 316v299l350 315l127 -113l-260 -352l260 -352z" />
<glyph unicode="&#xac;" d="M864 193v376h-721v213h942v-589h-221z" />
<glyph unicode="&#xad;" d="M143 569v213h942v-213h-942z" />
<glyph unicode="&#xae;" d="M612 637q-170 0 -287.5 117.5t-117.5 296.5t117.5 296t287.5 117q171 0 288.5 -117t117.5 -296t-117.5 -296.5t-288.5 -117.5zM612 737q130 0 212.5 86.5t82.5 227.5t-82.5 227t-212.5 86t-212.5 -86t-82.5 -227t82.5 -227.5t212.5 -86.5zM446 852v403h183 q75 0 120.5 -34t45.5 -101q0 -76 -72 -110l86 -158h-123l-61 123h-60v-123h-119zM565 1057h41q31 0 47.5 16t16.5 41q0 23 -16 38t-46 15h-43v-110z" />
<glyph unicode="&#xaf;" d="M332 1212v191h565v-191h-565z" />
<glyph unicode="&#xb0;" d="M616 815q-126 0 -211.5 83.5t-85.5 211.5t85.5 211.5t211.5 83.5t210.5 -83.5t84.5 -211.5t-84.5 -211.5t-210.5 -83.5zM616 958q61 0 99.5 42t38.5 110q0 66 -38.5 108t-99.5 42t-99 -42t-38 -108q0 -68 38 -110t99 -42z" />
<glyph unicode="&#xb1;" d="M504 324v278h-361v213h361v344h221v-344h360v-213h-360v-278h-221zM143 0v213h942v-213h-942z" />
<glyph unicode="&#xb4;" d="M446 1176l183 342h307l-270 -342h-220z" />
<glyph unicode="&#xb5;" d="M127 -401v1417h301v-588q0 -106 35 -151.5t106 -45.5q62 0 110.5 36t94.5 122v627h303q-20 -476 -20 -713q0 -84 71 -84q21 0 37 4l37 -223q-62 -25 -151 -25q-190 0 -244 193h-8q-41 -88 -104.5 -135t-139.5 -47q-101 0 -145 51q7 -298 22 -438h-305z" />
<glyph unicode="&#xb6;" d="M590 403q-102 0 -190.5 31t-156 89t-106.5 150t-39 206q0 100 25.5 179t69.5 130.5t106.5 85t133 47.5t153.5 14h86v-932h-82zM778 -164v1499h299v-1499h-299z" />
<glyph unicode="&#xb7;" d="M614 483q-104 0 -170.5 69.5t-66.5 172.5q0 101 66.5 170.5t170.5 69.5t171 -69.5t67 -170.5q0 -103 -67 -172.5t-171 -69.5z" />
<glyph unicode="&#xb8;" d="M430 -453l-22 121q167 17 167 90q0 28 -26 49t-92 37l82 164h176l-41 -96q119 -40 119 -152q0 -67 -52 -115t-130.5 -70.5t-180.5 -27.5z" />
<glyph unicode="&#xba;" d="M614 516q-142 0 -242 95.5t-100 256.5t100.5 258t241.5 97t241.5 -97t100.5 -258t-100 -256.5t-242 -95.5zM614 684q125 0 125 184q0 185 -125 185q-63 0 -94 -49t-31 -136q0 -86 31 -135t94 -49z" />
<glyph unicode="&#xbb;" d="M248 51l-127 113l260 352l-260 352l127 113l350 -315v-299zM793 51l-127 113l260 352l-260 352l127 113l350 -315v-299z" />
<glyph unicode="&#xbc;" d="M307 664v434h-166v131q75 9 119 24t96 47h170v-636h-219zM813 772l-104 98l331 408l154 -150zM918 0v125h-328v104l246 410h274v-379h104v-135h-104v-125h-192zM188 57l-153 150l381 354l104 -96zM784 260h134v45l10 203h-6l-70 -127z" />
<glyph unicode="&#xbd;" d="M307 664v434h-166v131q75 9 119 24t96 47h170v-636h-219zM813 772l-104 98l331 408l154 -150zM612 0v113q301 199 301 290q0 39 -24 61.5t-66 22.5q-61 0 -114 -71l-125 114q127 134 272 134q122 0 194 -60t72 -164q0 -64 -44 -127t-122 -135h191v-178h-535zM188 57 l-153 150l381 354l104 -96z" />
<glyph unicode="&#xbe;" d="M356 639q-165 0 -280 84l84 135q34 -25 81.5 -42t88.5 -17q37 0 61.5 15.5t24.5 43.5q0 72 -150 72v114q123 0 123 66q0 25 -20.5 39t-57.5 14q-58 0 -135 -51l-88 129q108 84 272 84q102 0 172 -50t70 -130q0 -59 -24.5 -93t-85.5 -55q137 -38 137 -155 q0 -88 -80 -145.5t-193 -57.5zM827 772l-104 98l332 408l153 -150zM920 0v125h-328v104l246 410h272v-379h107v-135h-107v-125h-190zM203 57l-154 150l381 354l105 -96zM786 260h134v45l10 203h-6l-70 -127z" />
<glyph unicode="&#xbf;" d="M643 627q-88 0 -145.5 57t-57.5 147q0 92 57.5 150.5t145.5 58.5q90 0 147.5 -58.5t57.5 -150.5q0 -90 -57.5 -147t-147.5 -57zM631 -381q-186 0 -303 86t-117 248q0 54 18.5 101.5t47.5 82t63.5 66.5t68.5 63t61 63t41 74.5t9 90.5h264q12 -76 -13 -141.5t-69 -111 t-89.5 -85t-79 -81.5t-33.5 -83q0 -61 42 -95t109 -34q60 0 109 24t102 70l166 -152q-77 -87 -178.5 -136.5t-218.5 -49.5z" />
<glyph unicode="&#xc0;" d="M528 1452l-245 248h319l166 -248h-240zM18 0l416 1350h361l415 -1350h-319l-80 324h-403l-82 -324h-308zM469 559h281l-31 125q-76 310 -107 434h-8q-47 -201 -104 -434z" />
<glyph unicode="&#xc1;" d="M461 1452l166 248h319l-246 -248h-239zM18 0l416 1350h361l415 -1350h-319l-80 324h-403l-82 -324h-308zM469 559h281l-31 125q-76 310 -107 434h-8q-47 -201 -104 -434z" />
<glyph unicode="&#xc2;" d="M270 1452l197 248h295l196 -248h-231l-109 127h-8l-108 -127h-232zM18 0l416 1350h361l415 -1350h-319l-80 324h-403l-82 -324h-308zM469 559h281l-31 125q-76 310 -107 434h-8q-47 -201 -104 -434z" />
<glyph unicode="&#xc3;" d="M266 1456q14 135 75 208t144 73q37 0 76 -15t65 -32.5t55 -32.5t50 -15q59 0 78 95h154q-14 -136 -75.5 -208.5t-144.5 -72.5q-48 0 -95.5 23.5t-86 47t-63.5 23.5q-59 0 -78 -94h-154zM18 0l416 1350h361l415 -1350h-319l-80 324h-403l-82 -324h-308zM469 559h281 l-31 127l-107 434h-8q-35 -153 -104 -434z" />
<glyph unicode="&#xc4;" d="M412 1450q-63 0 -103.5 40.5t-40.5 102.5t40.5 103t103.5 41t103 -41t40 -103t-40 -102.5t-103 -40.5zM817 1450q-63 0 -103 40.5t-40 102.5t40 103t103 41t103.5 -41t40.5 -103t-40.5 -102.5t-103.5 -40.5zM18 0l416 1350h361l415 -1350h-319l-80 324h-403l-82 -324 h-308zM469 559h281l-31 125l-107 436h-8q-44 -188 -104 -436z" />
<glyph unicode="&#xc5;" d="M614 1442q-104 0 -167.5 55t-63.5 148q0 91 64 146.5t167 55.5t167.5 -56t64.5 -146q0 -93 -64 -148t-168 -55zM614 1554q35 0 58.5 25.5t23.5 65.5q0 39 -24 64.5t-58 25.5q-36 0 -60 -25.5t-24 -64.5q0 -41 24 -66t60 -25zM18 0l416 1350h361l415 -1350h-319l-80 324 h-403l-82 -324h-308zM469 559h281l-31 125l-107 436h-8q-44 -188 -104 -436z" />
<glyph unicode="&#xc6;" d="M-6 0l428 1352h778v-254h-297v-273h242v-254h-242v-317h316v-254h-582v311h-242l-92 -311h-309zM465 545h172v579h-6q-31 -121 -109 -385z" />
<glyph unicode="&#xc7;" d="M520 -457l-22 121q170 17 170 90q0 29 -27 50t-92 38l72 144q-109 19 -200.5 72.5t-160.5 138t-108 205.5t-39 266q0 165 49.5 299.5t135.5 223.5t202 137t250 48q223 0 395 -172l-166 -186q-105 98 -229 98q-144 0 -236 -118.5t-92 -319.5q0 -206 93.5 -324t246.5 -118 q130 0 237 120l166 -182q-150 -179 -372 -197l-29 -67q121 -40 121 -154q0 -99 -102.5 -152t-262.5 -61z" />
<glyph unicode="&#xc8;" d="M571 1452l-245 248h321l164 -248h-240zM193 0v1350h880v-254h-579v-275h491v-252h-491v-315h600v-254h-901z" />
<glyph unicode="&#xc9;" d="M506 1452l164 248h321l-246 -248h-239zM193 0v1350h880v-254h-579v-275h491v-252h-491v-315h600v-254h-901z" />
<glyph unicode="&#xca;" d="M315 1452l197 248h293l196 -248h-229l-108 127h-9l-110 -127h-230zM193 0v1350h880v-254h-579v-275h491v-252h-491v-315h600v-254h-901z" />
<glyph unicode="&#xcb;" d="M455 1450q-63 0 -102.5 40.5t-39.5 102.5t40 103t102 41q64 0 103.5 -41t39.5 -103t-39.5 -102.5t-103.5 -40.5zM862 1450q-63 0 -103 40.5t-40 102.5t40 103t103 41q62 0 102 -41t40 -103t-39.5 -102.5t-102.5 -40.5zM193 0v1350h880v-254h-579v-275h491v-252h-491v-315 h600v-254h-901z" />
<glyph unicode="&#xcc;" d="M528 1452l-245 248h319l166 -248h-240zM152 0v254h311v842h-311v254h925v-254h-311v-842h311v-254h-925z" />
<glyph unicode="&#xcd;" d="M461 1452l166 248h319l-246 -248h-239zM152 0v254h311v842h-311v254h925v-254h-311v-842h311v-254h-925z" />
<glyph unicode="&#xce;" d="M270 1452l197 248h295l196 -248h-231l-109 127h-8l-108 -127h-232zM152 0v254h311v842h-311v254h925v-254h-311v-842h311v-254h-925z" />
<glyph unicode="&#xcf;" d="M412 1450q-63 0 -103.5 40.5t-40.5 102.5t40.5 103t103.5 41t103 -41t40 -103t-40 -102.5t-103 -40.5zM817 1450q-63 0 -103 40.5t-40 102.5t40 103t103 41t103.5 -41t40.5 -103t-40.5 -102.5t-103.5 -40.5zM152 0v254h311v842h-311v254h925v-254h-311v-842h311v-254 h-925z" />
<glyph unicode="&#xd0;" d="M145 0v625h-141v135l141 12v580h365q300 0 470.5 -167t170.5 -503q0 -170 -45.5 -301t-129 -214t-197 -125t-253.5 -42h-381zM449 244h43q350 0 350 438q0 119 -25 203t-73 132t-109.5 69.5t-142.5 21.5h-43v-336h219v-147h-219v-381z" />
<glyph unicode="&#xd1;" d="M279 1456q14 135 75 208t144 73q38 0 76.5 -15t64.5 -32.5t54.5 -32.5t49.5 -15q59 0 78 95h154q-14 -136 -75 -208.5t-144 -72.5q-48 0 -96 23.5t-86.5 47t-63.5 23.5q-59 0 -78 -94h-153zM135 0v1350h307l283 -678l115 -295h8q-3 36 -16 144t-20 191t-7 154v484h289 v-1350h-308l-282 678l-115 293h-8q4 -45 16.5 -148t19.5 -186t7 -154v-483h-289z" />
<glyph unicode="&#xd2;" d="M528 1452l-245 248h319l166 -248h-240zM614 -25q-241 0 -388.5 189.5t-147.5 515.5q0 325 147 509.5t389 184.5t389.5 -185.5t147.5 -508.5q0 -326 -148 -515.5t-389 -189.5zM614 236q104 0 166 120t62 324q0 202 -61.5 318t-166.5 116t-166 -116t-61 -318 q0 -204 61.5 -324t165.5 -120z" />
<glyph unicode="&#xd3;" d="M461 1452l166 248h319l-246 -248h-239zM614 -25q-241 0 -388.5 189.5t-147.5 515.5q0 325 147 509.5t389 184.5t389.5 -185.5t147.5 -508.5q0 -326 -148 -515.5t-389 -189.5zM614 236q104 0 166 120t62 324q0 202 -61.5 318t-166.5 116t-166 -116t-61 -318 q0 -204 61.5 -324t165.5 -120z" />
<glyph unicode="&#xd4;" d="M270 1452l197 248h295l196 -248h-231l-109 127h-8l-108 -127h-232zM614 -25q-241 0 -388.5 189.5t-147.5 515.5q0 325 147 509.5t389 184.5t389.5 -185.5t147.5 -508.5q0 -326 -148 -515.5t-389 -189.5zM614 236q104 0 166 120t62 324q0 202 -61.5 318t-166.5 116 t-166 -116t-61 -318q0 -204 61.5 -324t165.5 -120z" />
<glyph unicode="&#xd5;" d="M266 1456q14 135 75 208t144 73q37 0 76 -15t65 -32.5t55 -32.5t50 -15q59 0 78 95h154q-14 -136 -75.5 -208.5t-144.5 -72.5q-48 0 -95.5 23.5t-86 47t-63.5 23.5q-59 0 -78 -94h-154zM614 -25q-241 0 -388.5 190t-147.5 517q0 325 147 508.5t389 183.5t389.5 -184.5 t147.5 -507.5q0 -327 -148 -517t-389 -190zM614 236q104 0 166 120.5t62 325.5q0 201 -61.5 316.5t-166.5 115.5t-166 -115t-61 -317q0 -205 61.5 -325.5t165.5 -120.5z" />
<glyph unicode="&#xd6;" d="M412 1450q-63 0 -103.5 40.5t-40.5 102.5t40.5 103t103.5 41t103 -41t40 -103t-40 -102.5t-103 -40.5zM817 1450q-63 0 -103 40.5t-40 102.5t40 103t103 41t103.5 -41t40.5 -103t-40.5 -102.5t-103.5 -40.5zM614 -25q-241 0 -388.5 190t-147.5 517q0 325 147 508.5 t389 183.5t389.5 -184.5t147.5 -507.5q0 -327 -148 -517t-389 -190zM614 236q104 0 166 120.5t62 325.5q0 201 -61.5 316.5t-166.5 115.5t-166 -115t-61 -317q0 -205 61.5 -325.5t165.5 -120.5z" />
<glyph unicode="&#xd7;" d="M322 229l-150 152l291 293l-291 295l150 151l292 -295l293 295l150 -151l-291 -295l291 -293l-150 -152l-293 295z" />
<glyph unicode="&#xd8;" d="M221 -84l-160 102l132 193q-115 185 -115 471q0 326 147 511t389 185q177 0 304 -100l108 160l160 -103l-139 -205q104 -176 104 -448q0 -326 -148 -516.5t-389 -190.5q-166 0 -288 93zM399 510l326 549q6 10 -10.5 24t-45.5 24.5t-55 10.5q-105 0 -166 -116.5 t-61 -319.5q0 -92 12 -172zM614 236q104 0 166 121t62 325q0 84 -8 139l-349 -520q53 -65 129 -65z" />
<glyph unicode="&#xd9;" d="M528 1452l-245 248h319l166 -248h-240zM618 -25q-242 0 -364.5 139t-122.5 404v832h301v-861q0 -253 186 -253q189 0 189 253v861h291v-832q0 -266 -120 -404.5t-360 -138.5z" />
<glyph unicode="&#xda;" d="M461 1452l166 248h319l-246 -248h-239zM618 -25q-242 0 -364.5 139t-122.5 404v832h301v-861q0 -253 186 -253q189 0 189 253v861h291v-832q0 -266 -120 -404.5t-360 -138.5z" />
<glyph unicode="&#xdb;" d="M270 1452l197 248h295l196 -248h-231l-109 127h-8l-108 -127h-232zM618 -25q-242 0 -364.5 139t-122.5 404v832h301v-861q0 -253 186 -253q189 0 189 253v861h291v-832q0 -266 -120 -404.5t-360 -138.5z" />
<glyph unicode="&#xdc;" d="M412 1450q-63 0 -103.5 40.5t-40.5 102.5t40.5 103t103.5 41t103 -41t40 -103t-40 -102.5t-103 -40.5zM817 1450q-63 0 -103 40.5t-40 102.5t40 103t103 41t103.5 -41t40.5 -103t-40.5 -102.5t-103.5 -40.5zM618 -25q-242 0 -364.5 139.5t-122.5 405.5v830h301v-861 q0 -253 186 -253q189 0 189 253v861h291v-830q0 -267 -120 -406t-360 -139z" />
<glyph unicode="&#xdd;" d="M461 1452l166 248h319l-246 -248h-239zM463 0v457l-430 893h323l136 -328q33 -83 120 -307h9q9 23 54 135t70 172l136 328h315l-430 -893v-457h-303z" />
<glyph unicode="&#xde;" d="M150 0v1352h301v-205h186q113 0 204 -22.5t164.5 -71t113.5 -134.5t40 -204q0 -116 -41.5 -205.5t-114 -144t-165 -82t-201.5 -27.5h-186v-256h-301zM451 496h167q244 0 244 219q0 103 -60 147.5t-184 44.5h-167v-411z" />
<glyph unicode="&#xdf;" d="M813 -25q-81 0 -146.5 19t-138.5 59l101 205q86 -59 174 -59q39 0 63.5 26t24.5 68q0 46 -33 83t-79.5 67.5t-93 65.5t-79.5 94t-33 136q0 57 19 111.5t42.5 90.5t42.5 88.5t19 107.5q0 57 -29 94t-79 37q-81 0 -121.5 -63t-40.5 -177v-1028h-301v1049q0 204 119.5 330 t345.5 126q96 0 171.5 -29.5t121.5 -79.5t70 -112t24 -131t-19.5 -129t-43 -94.5t-43 -76t-19.5 -77.5q0 -33 23.5 -62.5t58.5 -51t76.5 -53.5t76.5 -66.5t58.5 -93t23.5 -130.5q0 -151 -93.5 -247.5t-262.5 -96.5z" />
<glyph unicode="&#xe0;" d="M662 1176l-271 342h307l183 -342h-219zM459 -25q-151 0 -242.5 89.5t-91.5 224.5q0 177 156.5 268.5t513.5 114.5q-8 75 -62 116t-155 41q-146 0 -269 -98l-106 197q76 64 192 103.5t242 39.5q218 0 338.5 -118.5t120.5 -350.5v-602h-246l-23 119h-8q-184 -144 -360 -144 zM555 209q116 0 240 102v181q-144 -9 -231 -35t-118.5 -61t-31.5 -85q0 -51 37 -76.5t104 -25.5z" />
<glyph unicode="&#xe1;" d="M391 1176l182 342h308l-271 -342h-219zM459 -25q-151 0 -242.5 89.5t-91.5 224.5q0 177 156.5 268.5t513.5 114.5q-8 75 -62 116t-155 41q-146 0 -269 -98l-106 197q76 64 192 103.5t242 39.5q218 0 338.5 -118.5t120.5 -350.5v-602h-246l-23 119h-8q-184 -144 -360 -144 zM555 209q116 0 240 102v181q-144 -9 -231 -35t-118.5 -61t-31.5 -85q0 -51 37 -76.5t104 -25.5z" />
<glyph unicode="&#xe2;" d="M305 1176l205 342h254l205 -342h-219l-109 194h-8l-109 -194h-219zM459 -25q-151 0 -242.5 89.5t-91.5 224.5q0 177 156.5 268.5t513.5 114.5q-8 75 -62 116t-155 41q-146 0 -269 -98l-106 197q76 64 192 103.5t242 39.5q218 0 338.5 -118.5t120.5 -350.5v-602h-246 l-23 119h-8q-184 -144 -360 -144zM555 209q116 0 240 102v181q-144 -9 -231 -35t-118.5 -61t-31.5 -85q0 -51 37 -76.5t104 -25.5z" />
<glyph unicode="&#xe3;" d="M287 1178q18 146 80.5 219t158.5 73q43 0 85.5 -26.5t76.5 -53t57 -26.5q33 0 54.5 24t34.5 82h153q-18 -145 -80.5 -218.5t-158.5 -73.5q-34 0 -69 17t-58 37t-48.5 37t-44.5 17q-33 0 -54 -24t-34 -84h-153zM459 -25q-151 0 -242.5 89.5t-91.5 224.5q0 177 156.5 268.5 t513.5 114.5q-8 75 -62 116t-155 41q-146 0 -269 -98l-106 197q76 64 192 103.5t242 39.5q218 0 338.5 -118.5t120.5 -350.5v-602h-246l-23 119h-8q-184 -144 -360 -144zM555 209q116 0 240 102v181q-144 -9 -231 -35t-118.5 -61t-31.5 -85q0 -51 37 -76.5t104 -25.5z" />
<glyph unicode="&#xe4;" d="M414 1169q-70 0 -116 46.5t-46 115.5q0 68 46 114t116 46t114.5 -46t44.5 -114q0 -70 -44.5 -116t-114.5 -46zM860 1169q-70 0 -115 46t-45 116q0 68 45 114t115 46t116 -46t46 -114q0 -69 -46 -115.5t-116 -46.5zM459 -25q-151 0 -242.5 89.5t-91.5 224.5 q0 177 156.5 268.5t513.5 114.5q-8 75 -62 116t-155 41q-146 0 -269 -98l-106 197q76 64 192 103.5t242 39.5q218 0 338.5 -118.5t120.5 -350.5v-602h-246l-23 119h-8q-184 -144 -360 -144zM555 209q116 0 240 102v181q-144 -9 -231 -35t-118.5 -61t-31.5 -85 q0 -51 37 -76.5t104 -25.5z" />
<glyph unicode="&#xe5;" d="M637 1122q-103 0 -167 57t-64 152t64 152t167 57t167 -57t64 -152t-64 -152t-167 -57zM637 1235q36 0 60 27t24 69t-24 69t-60 27t-60 -27t-24 -69t24 -69t60 -27zM459 -25q-151 0 -242.5 89.5t-91.5 224.5q0 177 156.5 268.5t513.5 114.5q-8 75 -62 116t-155 41 q-146 0 -269 -98l-106 197q76 64 192 103.5t242 39.5q218 0 338.5 -118.5t120.5 -350.5v-602h-246l-23 119h-8q-184 -144 -360 -144zM555 209q116 0 240 102v181q-144 -9 -231 -35t-118.5 -61t-31.5 -85q0 -51 37 -76.5t104 -25.5z" />
<glyph unicode="&#xe6;" d="M315 -25q-133 0 -207.5 89t-74.5 227q0 157 112 246.5t349 136.5q-6 78 -33.5 117.5t-83.5 39.5q-42 0 -100 -20t-111 -53l-107 196q189 117 338 117q159 0 238 -158q55 81 115.5 119.5t146.5 38.5q101 0 174 -69.5t108 -181.5t35 -251q0 -67 -14 -135h-465 q17 -109 65.5 -166t121.5 -57q81 0 159 55l103 -192q-57 -46 -132 -72.5t-141 -26.5q-194 0 -309 164q-151 -164 -287 -164zM731 621h244q0 219 -107 219q-53 0 -90 -55t-47 -164zM397 209q30 0 64 20t61 56q-25 69 -28 161l-2 43q-189 -41 -189 -176q0 -51 24.5 -77.5 t69.5 -26.5z" />
<glyph unicode="&#xe7;" d="M688 -88q119 -40 119 -152q0 -67 -52 -115t-130.5 -70.5t-180.5 -27.5l-22 121q168 17 168 90q0 28 -26.5 49t-92.5 37l74 148q-186 43 -297 181t-111 349q0 168 82.5 295t214.5 190.5t291 63.5q115 0 214 -39t167 -104l-139 -187q-114 86 -226 86q-131 0 -213 -84 t-82 -221t79 -220t206 -83q132 0 268 100l123 -190q-87 -73 -194.5 -112.5t-212.5 -41.5z" />
<glyph unicode="&#xe8;" d="M666 1176l-271 342h307l183 -342h-219zM676 -25q-159 0 -285.5 63.5t-202 189.5t-75.5 294q0 124 44.5 229.5t118.5 174t168.5 107t196.5 38.5q227 0 352 -140t125 -362q0 -54 -12 -135h-684q14 -115 95 -172t200 -57q126 0 262 74l98 -183q-87 -56 -194 -88.5 t-207 -32.5zM418 635h428q0 96 -49.5 150.5t-149.5 54.5q-85 0 -147 -52t-82 -153z" />
<glyph unicode="&#xe9;" d="M395 1176l183 342h307l-271 -342h-219zM676 -25q-159 0 -285.5 63.5t-202 189.5t-75.5 294q0 124 44.5 229.5t118.5 174t168.5 107t196.5 38.5q227 0 352 -140t125 -362q0 -54 -12 -135h-684q14 -115 95 -172t200 -57q126 0 262 74l98 -183q-87 -56 -194 -88.5 t-207 -32.5zM418 635h428q0 96 -49.5 150.5t-149.5 54.5q-85 0 -147 -52t-82 -153z" />
<glyph unicode="&#xea;" d="M309 1176l205 342h254l205 -342h-219l-109 194h-8l-109 -194h-219zM676 -25q-159 0 -285.5 63.5t-202 189.5t-75.5 294q0 124 44.5 229.5t118.5 174t168.5 107t196.5 38.5q227 0 352 -140t125 -362q0 -54 -12 -135h-684q14 -115 95 -172t200 -57q126 0 262 74l98 -183 q-87 -56 -194 -88.5t-207 -32.5zM418 635h428q0 96 -49.5 150.5t-149.5 54.5q-85 0 -147 -52t-82 -153z" />
<glyph unicode="&#xeb;" d="M418 1169q-70 0 -116 46.5t-46 115.5q0 68 46 114t116 46t115 -46t45 -114q0 -70 -45 -116t-115 -46zM864 1169q-70 0 -114.5 46t-44.5 116q0 68 44.5 114t114.5 46t116 -46t46 -114q0 -69 -46 -115.5t-116 -46.5zM676 -25q-159 0 -285.5 63.5t-202 189.5t-75.5 294 q0 124 44.5 229.5t118.5 174t168.5 107t196.5 38.5q227 0 352 -140t125 -362q0 -54 -12 -135h-684q14 -115 95 -172t200 -57q126 0 262 74l98 -183q-87 -56 -194 -88.5t-207 -32.5zM418 635h428q0 96 -49.5 150.5t-149.5 54.5q-85 0 -147 -52t-82 -153z" />
<glyph unicode="&#xec;" d="M635 1143l-270 342h307l182 -342h-219zM125 0v244h348v565h-348v235h649v-800h348v-244h-997z" />
<glyph unicode="&#xed;" d="M365 1143l182 342h307l-270 -342h-219zM125 0v244h348v565h-348v235h649v-800h348v-244h-997z" />
<glyph unicode="&#xee;" d="M279 1143l204 342h254l205 -342h-219l-109 194h-8l-108 -194h-219zM125 0v244h348v565h-348v235h649v-800h348v-244h-997z" />
<glyph unicode="&#xef;" d="M387 1137q-70 0 -116 46t-46 115q0 68 46 114t116 46t115 -46t45 -114q0 -69 -45 -115t-115 -46zM834 1137q-70 0 -115 46t-45 115q0 68 45 114t115 46t115.5 -46t45.5 -114q0 -69 -45.5 -115t-115.5 -46zM125 0v244h348v565h-348v235h649v-800h348v-244h-997z" />
<glyph unicode="&#xf0;" d="M604 -25q-103 0 -195.5 36t-162 100t-110 159.5t-40.5 208.5q0 110 37 201.5t100 151.5t144.5 93t171.5 33q165 0 258 -118q-56 187 -201 323l-305 -157l-78 133l246 129q-87 59 -193 108l132 183q162 -73 297 -173l278 146l78 -135l-227 -119q292 -279 292 -719 q0 -259 -140.5 -421.5t-381.5 -162.5zM614 219q108 0 170 83.5t62 240.5q0 50 -2 73q-97 119 -234 119q-113 0 -176 -65t-63 -191q0 -122 69.5 -191t173.5 -69z" />
<glyph unicode="&#xf1;" d="M285 1178q18 146 80.5 219t158.5 73q43 0 85.5 -26.5t76.5 -53t57 -26.5q33 0 54 24t34 82h154q-18 -145 -81 -218.5t-159 -73.5q-34 0 -69 17t-57.5 37t-48 37t-44.5 17q-33 0 -54 -24t-34 -84h-153zM147 0v1044h246l23 -141h8q164 168 350 168q168 0 250 -111t82 -315 v-645h-301v606q0 110 -34 159.5t-116 49.5q-58 0 -102.5 -27.5t-103.5 -89.5v-698h-302z" />
<glyph unicode="&#xf2;" d="M639 1176l-270 342h307l182 -342h-219zM614 -25q-101 0 -194 37t-165.5 105t-115.5 173.5t-43 231.5t43 231.5t115.5 174t165.5 106t194 37.5t194 -37.5t165.5 -106t116 -174t43.5 -231.5t-43.5 -231.5t-116 -173.5t-165.5 -105t-194 -37zM614 219q102 0 155.5 81 t53.5 222q0 142 -53.5 223.5t-155.5 81.5t-155 -81.5t-53 -223.5q0 -141 53 -222t155 -81z" />
<glyph unicode="&#xf3;" d="M369 1176l182 342h307l-270 -342h-219zM614 -25q-101 0 -194 37t-165.5 105t-115.5 173.5t-43 231.5t43 231.5t115.5 174t165.5 106t194 37.5t194 -37.5t165.5 -106t116 -174t43.5 -231.5t-43.5 -231.5t-116 -173.5t-165.5 -105t-194 -37zM614 219q102 0 155.5 81 t53.5 222q0 142 -53.5 223.5t-155.5 81.5t-155 -81.5t-53 -223.5q0 -141 53 -222t155 -81z" />
<glyph unicode="&#xf4;" d="M283 1176l204 342h254l205 -342h-219l-109 194h-8l-108 -194h-219zM614 -25q-101 0 -194 37t-165.5 105t-115.5 173.5t-43 231.5t43 231.5t115.5 174t165.5 106t194 37.5t194 -37.5t165.5 -106t116 -174t43.5 -231.5t-43.5 -231.5t-116 -173.5t-165.5 -105t-194 -37z M614 219q102 0 155.5 81t53.5 222q0 142 -53.5 223.5t-155.5 81.5t-155 -81.5t-53 -223.5q0 -141 53 -222t155 -81z" />
<glyph unicode="&#xf5;" d="M264 1178q18 146 81 219t159 73q43 0 85.5 -26.5t76.5 -53t57 -26.5q33 0 54 24t34 82h154q-18 -145 -81 -218.5t-159 -73.5q-34 0 -69 17t-57.5 37t-48 37t-44.5 17q-33 0 -54 -24t-34 -84h-154zM614 -25q-101 0 -194 37t-165.5 105t-115.5 173.5t-43 231.5t43 231.5 t115.5 174t165.5 106t194 37.5t194 -37.5t165.5 -106t116 -174t43.5 -231.5t-43.5 -231.5t-116 -173.5t-165.5 -105t-194 -37zM614 219q102 0 155.5 81t53.5 222q0 142 -53.5 223.5t-155.5 81.5t-155 -81.5t-53 -223.5q0 -141 53 -222t155 -81z" />
<glyph unicode="&#xf6;" d="M391 1169q-70 0 -116 46.5t-46 115.5q0 68 46 114t116 46t115 -46t45 -114q0 -70 -45 -116t-115 -46zM838 1169q-70 0 -115 46t-45 116q0 68 45 114t115 46t115.5 -46t45.5 -114q0 -69 -45.5 -115.5t-115.5 -46.5zM614 -25q-101 0 -194 37t-165.5 105t-115.5 173.5 t-43 231.5t43 231.5t115.5 174t165.5 106t194 37.5t194 -37.5t165.5 -106t116 -174t43.5 -231.5t-43.5 -231.5t-116 -173.5t-165.5 -105t-194 -37zM614 219q102 0 155.5 81t53.5 222q0 142 -53.5 223.5t-155.5 81.5t-155 -81.5t-53 -223.5q0 -141 53 -222t155 -81z" />
<glyph unicode="&#xf7;" d="M614 887q-71 0 -118 47t-47 119t47 119t118 47t118.5 -47t47.5 -119t-47.5 -119t-118.5 -47zM143 569v213h942v-213h-942zM614 133q-71 0 -118 47t-47 119t47 119t118 47t118.5 -47t47.5 -119t-47.5 -119t-118.5 -47z" />
<glyph unicode="&#xf8;" d="M240 -53l-113 88l94 119q-125 148 -125 368q0 126 43 231.5t115.5 174t165.5 106t194 37.5q155 0 283 -84l92 115l113 -90l-96 -119q127 -150 127 -371q0 -126 -43.5 -231.5t-116 -173.5t-165.5 -105t-194 -37q-156 0 -284 84zM420 389l315 404q-49 43 -121 43 q-101 0 -154.5 -85.5t-53.5 -228.5q0 -78 14 -133zM614 209q101 0 155 85t54 228q0 80 -14 137l-317 -403q50 -47 122 -47z" />
<glyph unicode="&#xf9;" d="M639 1176l-270 342h307l182 -342h-219zM457 -25q-330 0 -330 424v645h301v-606q0 -111 32 -159t115 -48q58 0 103 27.5t96 97.5v688h301v-1044h-246l-22 152h-8q-150 -177 -342 -177z" />
<glyph unicode="&#xfa;" d="M369 1176l182 342h307l-270 -342h-219zM457 -25q-330 0 -330 424v645h301v-606q0 -111 32 -159t115 -48q58 0 103 27.5t96 97.5v688h301v-1044h-246l-22 152h-8q-150 -177 -342 -177z" />
<glyph unicode="&#xfb;" d="M283 1176l204 342h254l205 -342h-219l-109 194h-8l-108 -194h-219zM457 -25q-330 0 -330 424v645h301v-606q0 -111 32 -159t115 -48q58 0 103 27.5t96 97.5v688h301v-1044h-246l-22 152h-8q-150 -177 -342 -177z" />
<glyph unicode="&#xfc;" d="M391 1169q-70 0 -116 46.5t-46 115.5q0 68 46 114t116 46t115 -46t45 -114q0 -70 -45 -116t-115 -46zM838 1169q-70 0 -115 46t-45 116q0 68 45 114t115 46t115.5 -46t45.5 -114q0 -69 -45.5 -115.5t-115.5 -46.5zM457 -25q-330 0 -330 424v645h301v-606q0 -111 32 -159 t115 -48q58 0 103 27.5t96 97.5v688h301v-1044h-246l-22 152h-8q-150 -177 -342 -177z" />
<glyph unicode="&#xfd;" d="M389 1176l182 342h308l-271 -342h-219zM293 -444q-84 0 -156 20l53 229q41 -12 80 -12q41 0 77 15.5t60.5 40t39.5 47.5t24 45l33 84l-441 1019h299l170 -456q40 -106 103 -314h8q43 163 92 314l150 456h284l-403 -1093q-38 -102 -79 -172.5t-97 -122t-129 -76 t-168 -24.5z" />
<glyph unicode="&#xfe;" d="M147 -377v1729h302v-242l-9 -162q133 123 285 123q188 0 298 -144t110 -388q0 -129 -37.5 -237.5t-99.5 -178.5t-140 -109t-162 -39q-134 0 -252 115l7 -172v-295h-302zM623 221q87 0 143.5 79.5t56.5 234.5q0 145 -45.5 217.5t-142.5 72.5q-94 0 -186 -102v-430 q75 -72 174 -72z" />
<glyph unicode="&#xff;" d="M412 1169q-70 0 -116 46.5t-46 115.5q0 68 46 114t116 46t114.5 -46t44.5 -114q0 -70 -44.5 -116t-114.5 -46zM858 1169q-70 0 -115 46t-45 116q0 68 45 114t115 46t116 -46t46 -114q0 -69 -46 -115.5t-116 -46.5zM293 -444q-84 0 -156 20l53 229q41 -12 80 -12 q41 0 77 15.5t60.5 40t39.5 47.5t24 45l33 84l-441 1019h299l170 -456q40 -106 103 -314h8q43 163 92 314l150 456h284l-403 -1093q-38 -102 -79 -172.5t-97 -122t-129 -76t-168 -24.5z" />
<glyph unicode="&#x152;" d="M588 0q-120 0 -219 42t-173.5 124.5t-115.5 214t-41 301.5q0 169 42.5 299t119 210t178 120.5t225.5 40.5h594v-252h-328v-279h248v-252h-248v-315h349v-254h-631zM569 244h33v864h-33q-71 0 -118 -37.5t-75 -134t-28 -254.5q0 -159 28 -258.5t75.5 -139.5t117.5 -40z " />
<glyph unicode="&#x153;" d="M399 -25q-162 0 -268 146.5t-106 400.5q0 253 109 401t272 148q166 0 247 -186q41 89 105 137.5t139 48.5q98 0 171 -69.5t108.5 -182t35.5 -250.5q0 -65 -12 -135h-455q17 -109 64.5 -166t120.5 -57q76 0 151 55l103 -192q-57 -46 -129.5 -72.5t-136.5 -26.5 q-80 0 -149.5 43.5t-113.5 122.5q-46 -84 -106.5 -125t-149.5 -41zM741 621h234q0 219 -101 219q-54 0 -89 -55t-44 -164zM422 217q55 0 85 82.5t30 222.5t-30 223.5t-85 83.5q-63 0 -95 -82t-32 -225q0 -142 32 -223.5t95 -81.5z" />
<glyph unicode="&#x178;" d="M412 1450q-63 0 -103.5 40.5t-40.5 102.5t40.5 103t103.5 41t103 -41t40 -103t-40 -102.5t-103 -40.5zM817 1450q-63 0 -103 40.5t-40 102.5t40 103t103 41t103.5 -41t40.5 -103t-40.5 -102.5t-103.5 -40.5zM463 0v457l-430 893h323l136 -328q33 -83 120 -307h9 q9 23 54 135t70 172l136 328h315l-430 -893v-457h-303z" />
<glyph unicode="&#x2c6;" d="M283 1176l204 342h254l205 -342h-219l-109 194h-8l-108 -194h-219z" />
<glyph unicode="&#x2dc;" d="M264 1178q18 146 81 219t159 73q43 0 85.5 -26.5t76.5 -53t57 -26.5q33 0 54 24t34 82h154q-18 -145 -81 -218.5t-159 -73.5q-34 0 -69 17t-57.5 37t-48 37t-44.5 17q-33 0 -54 -24t-34 -84h-154z" />
<glyph unicode="&#x2000;" horiz-adv-x="923" />
<glyph unicode="&#x2001;" horiz-adv-x="1847" />
<glyph unicode="&#x2002;" horiz-adv-x="923" />
<glyph unicode="&#x2003;" horiz-adv-x="1847" />
<glyph unicode="&#x2004;" horiz-adv-x="615" />
<glyph unicode="&#x2005;" horiz-adv-x="461" />
<glyph unicode="&#x2006;" horiz-adv-x="307" />
<glyph unicode="&#x2007;" horiz-adv-x="307" />
<glyph unicode="&#x2008;" horiz-adv-x="230" />
<glyph unicode="&#x2009;" horiz-adv-x="369" />
<glyph unicode="&#x200a;" horiz-adv-x="102" />
<glyph unicode="&#x2010;" d="M143 569v213h942v-213h-942z" />
<glyph unicode="&#x2011;" d="M143 569v213h942v-213h-942z" />
<glyph unicode="&#x2012;" d="M143 569v213h942v-213h-942z" />
<glyph unicode="&#x2013;" d="M164 408v227h901v-227h-901z" />
<glyph unicode="&#x2014;" d="M41 408v227h1147v-227h-1147z" />
<glyph unicode="&#x2018;" d="M616 594q-114 0 -176.5 86t-62.5 242q0 342 358 505l78 -159q-215 -99 -229 -287q21 6 43 6q82 0 134 -51t52 -135q0 -93 -55 -150t-142 -57z" />
<glyph unicode="&#x2019;" d="M494 594l-80 160q214 96 229 284q-21 -6 -41 -6q-84 0 -136 52t-52 137q0 93 55 149.5t141 56.5q115 0 177.5 -86t62.5 -241q0 -343 -356 -506z" />
<glyph unicode="&#x201a;" d="M494 -473l-80 158q215 100 229 284q-28 -4 -41 -4q-84 0 -136 52.5t-52 136.5q0 93 55 149.5t141 56.5q115 0 177.5 -86t62.5 -241q0 -343 -356 -506z" />
<glyph unicode="&#x201c;" d="M344 594q-114 0 -177 86.5t-63 241.5q0 342 359 505l78 -159q-109 -50 -166 -120t-64 -167q21 6 43 6q83 0 135 -51t52 -135q0 -93 -55 -150t-142 -57zM889 594q-114 0 -177 86.5t-63 241.5q0 342 359 505l77 -159q-215 -99 -229 -287q21 6 43 6q82 0 134 -51t52 -135 q0 -93 -54.5 -150t-141.5 -57z" />
<glyph unicode="&#x201d;" d="M221 594l-80 160q215 96 230 282q-28 -4 -41 -4q-84 0 -136.5 52.5t-52.5 136.5q0 93 55.5 149.5t141.5 56.5q115 0 177.5 -86t62.5 -241q0 -342 -357 -506zM766 594l-80 160q214 96 229 284q-24 -6 -43 -6q-82 0 -134 52.5t-52 136.5q0 93 55.5 149.5t141.5 56.5 q115 0 177 -86t62 -241q0 -343 -356 -506z" />
<glyph unicode="&#x201e;" d="M221 -473l-80 158q216 101 228 284q-24 -4 -39 -4q-84 0 -136.5 52.5t-52.5 136.5q0 93 55.5 149.5t141.5 56.5q115 0 177.5 -86t62.5 -241q0 -168 -90 -296.5t-267 -209.5zM766 -473l-80 158q215 100 229 286q-24 -6 -43 -6q-82 0 -134 52.5t-52 136.5q0 93 55.5 149.5 t141.5 56.5q115 0 177 -86t62 -241q0 -343 -356 -506z" />
<glyph unicode="&#x2022;" d="M614 207q-143 0 -239 94.5t-96 235.5t96 235t239 94t239.5 -94t96.5 -235t-96.5 -235.5t-239.5 -94.5z" />
<glyph unicode="&#x2026;" d="M186 -25q-84 0 -136 56t-52 141t52 141t136 56q85 0 137 -56t52 -141t-52 -141t-137 -56zM614 -25q-84 0 -136 56t-52 141t52 141t136 56t136.5 -56.5t52.5 -140.5t-52.5 -140.5t-136.5 -56.5zM1042 -25q-85 0 -136.5 56t-51.5 141t51.5 141t136.5 56q84 0 136.5 -56.5 t52.5 -140.5t-52.5 -140.5t-136.5 -56.5z" />
<glyph unicode="&#x202f;" horiz-adv-x="369" />
<glyph unicode="&#x2039;" d="M709 51l-351 316v299l351 315l127 -113l-261 -352l261 -352z" />
<glyph unicode="&#x203a;" d="M520 51l-127 113l260 352l-260 352l127 113l350 -315v-299z" />
<glyph unicode="&#x205f;" horiz-adv-x="461" />
<glyph unicode="&#x20ac;" d="M780 -25q-211 0 -359.5 120.5t-197.5 344.5h-131v142l113 8q-2 18 -2 53t2 53h-113v140l131 10q51 227 205 353t375 126q104 0 202 -42t173 -118l-166 -161q-109 88 -219 88q-103 0 -171 -63t-98 -181h518v-152h-538v-43q0 -41 2 -59h455v-154h-431q32 -113 100.5 -172 t168.5 -59q133 0 229 110l166 -155q-173 -189 -414 -189z" />
<glyph unicode="&#x2122;" d="M135 741v465h-162v178h519v-178h-160v-465h-197zM563 741v643h211l70 -192l43 -145h8l41 145l70 192h211v-643h-173v197l23 236h-8l-109 -304h-119l-110 304h-8l22 -236v-197h-172z" />
<glyph unicode="&#x25fc;" horiz-adv-x="1044" d="M0 1044h1044v-1044h-1044v1044z" />
</font>
</defs>
</svg>
